<?xml version="1.0" encoding="UTF-8"?>
<svg width="300px" height="64px" viewBox="0 0 300 64" version="1.1" xmlns="http://www.w3.org/2000/svg" xmlns:xlink="http://www.w3.org/1999/xlink">
    <!-- Generator: Sketch 52.5 (67469) - http://www.bohemiancoding.com/sketch -->
    <title>DGraph白色</title>
    <desc>Created with Sketch.</desc>
    <g id="Page-1" stroke="none" stroke-width="1" fill="none" fill-rule="evenodd">
        <g id="DGraph-首页" transform="translate(-1281.000000, -287.000000)" fill="#FFFFFF" fill-rule="nonzero">
            <g id="DGraph白色" transform="translate(1281.000000, 287.000000)">
                <g id="分组">
                    <path d="M208.258929,20.4996691 L208.258929,18.8689747 C208.258929,17.0054346 209.757975,15.4947368 211.607143,15.4947368 C213.456311,15.4947368 214.955357,17.0054346 214.955357,18.8689747 L214.955357,49.8468148 C214.955357,51.7103549 213.456311,53.2210526 211.607143,53.2210526 C209.757975,53.2210526 208.258929,51.7103549 208.258929,49.8468148 L208.258929,48.2161204 C204.916221,51.3227566 200.446432,53.2210526 195.535714,53.2210526 C185.180375,53.2210526 176.785714,44.7798814 176.785714,34.367169 L176.785714,34.3486205 C176.785714,23.9359081 185.180375,15.4947368 195.535714,15.4947368 C200.446432,15.4947368 204.916221,17.3930329 208.258929,20.4996691 Z M195.200893,22.2315789 C188.728806,22.2315789 183.482143,27.5058207 183.482143,34.0119276 L183.482143,34.0301777 C183.482143,40.5362846 188.728806,45.8105263 195.200893,45.8105263 C201.67298,45.8105263 206.919643,40.5362846 206.919643,34.0301777 L206.919643,34.0119276 C206.919643,27.5058207 201.67298,22.2315789 195.200893,22.2315789 Z" id="合并形状"></path>
                    <path d="M228.348214,48.8095505 L228.348214,60.6270565 C228.348214,62.4898818 226.849168,64 225,64 C223.150832,64 221.651786,62.4898818 221.651786,60.6270565 L221.651786,18.8676803 C221.651786,17.0048551 223.150832,15.4947368 225,15.4947368 C226.849168,15.4947368 228.348214,17.0048551 228.348214,18.8676803 L228.348214,19.906239 C231.607412,17.1530133 235.81201,15.4947368 240.401786,15.4947368 C250.757125,15.4947368 259.151786,23.9359081 259.151786,34.3486205 L259.151786,34.367169 C259.151786,44.7798814 250.757125,53.2210526 240.401786,53.2210526 C235.81201,53.2210526 231.607412,51.5627762 228.348214,48.8095505 Z M240.736607,22.2315789 C234.26452,22.2315789 229.017857,27.5058207 229.017857,34.0119276 L229.017857,34.0301777 C229.017857,40.5362846 234.26452,45.8105263 240.736607,45.8105263 C247.208694,45.8105263 252.455357,40.5362846 252.455357,34.0301777 L252.455357,34.0119276 C252.455357,27.5058207 247.208694,22.2315789 240.736607,22.2315789 Z" id="合并形状"></path>
                    <path d="M154.017857,25.7586218 C157.269326,23.0651956 161.356459,21.5578944 165.669207,21.5578944 C167.055536,21.5578944 168.205495,21.6414804 169.318531,21.8657977 C171.131675,22.2312123 172.307068,24.0061534 171.943846,25.8302398 C171.580623,27.6543261 169.81633,28.8368131 168.003186,28.4713985 C167.39451,28.3487282 166.651704,28.2947365 165.669207,28.2947365 C162.743154,28.2947365 159.993828,29.3803797 157.866131,31.3136176 C156.696346,32.3764913 155.749344,33.6668911 155.088332,35.1042378 C154.402998,36.5944716 154.035432,38.2179947 154.017857,39.8903832 L154.017857,40.2416813 L154.047912,50.4884782 C154.051533,51.7229915 153.394568,52.8043522 152.411777,53.3937885 C151.904243,53.7116083 151.307792,53.8947368 150.669643,53.8947368 C148.820475,53.8947368 147.321429,52.3570624 147.321429,50.4602447 L147.321429,40.2467556 L147.320782,40.026134 C147.320782,39.9739791 147.320998,39.9218525 147.321429,39.8697553 L147.321429,18.9292289 C147.321429,17.0324113 148.820475,15.4947368 150.669643,15.4947368 C152.518811,15.4947368 154.017857,17.0324113 154.017857,18.9292289 L154.017857,25.7586218 Z" id="合并形状"></path>
                    <path d="M265.848214,4.04210526 C265.848214,2.18177768 267.347261,0.673684211 269.196429,0.673684211 C271.045596,0.673684211 272.544643,2.18177768 272.544643,4.04210526 L272.544643,49.8526316 C272.544643,51.7129592 271.045596,53.2210526 269.196429,53.2210526 C267.347261,53.2210526 265.848214,51.7129592 265.848214,49.8526316 L265.848214,4.04210526 Z" id="路径-12-copy-44"></path>
                    <path d="M272.498427,49.8691434 C272.498427,51.7203518 271.009726,53.2210526 269.173321,53.2210526 C267.336915,53.2210526 265.848214,51.7203518 265.848214,49.8691434 L265.848214,32.7082745 C265.848214,23.2015002 273.493352,15.4947368 282.924107,15.4947368 C292.354862,15.4947368 300,23.2015002 300,32.7082745 L300,49.8691434 C300,51.7203518 298.511299,53.2210526 296.674894,53.2210526 C294.838488,53.2210526 293.349787,51.7203518 293.349787,49.8691434 L293.349787,32.7082745 C293.349787,26.9039168 288.682051,22.1985552 282.924107,22.1985552 C277.166163,22.1985552 272.498427,26.9039168 272.498427,32.7082745 L272.498427,49.8691434 Z" id="路径-copy-29"></path>
                    <path d="M116.183036,30.7424561 C114.358857,30.7424561 112.880068,29.1941468 112.880068,27.2842105 C112.880068,25.3742742 114.358857,23.8259649 116.183036,23.8259649 L140.625,23.8259649 L140.625,27.2842105 C140.625,28.56082 140.537843,29.8269957 140.365303,31.0756034 C138.617944,43.7205607 128.360347,53.2210526 116.183036,53.2210526 C102.672551,53.2210526 91.7410714,41.5968342 91.7410714,27.2842105 C91.7410714,12.9715869 102.672551,1.34736842 116.183036,1.34736842 C125.239166,1.34736842 133.41578,6.6200073 137.662691,14.8984724 C138.525867,16.5810545 137.922852,18.6776954 136.315819,19.581451 C134.708786,20.4852066 132.706286,19.853843 131.843109,18.1712609 C128.731959,12.1067224 122.772589,8.26385965 116.183036,8.26385965 C106.34403,8.26385965 98.3470077,16.7676621 98.3470077,27.2842105 C98.3470077,37.800759 106.34403,46.3045614 116.183036,46.3045614 C124.836246,46.3045614 132.188691,39.6852794 133.725594,30.7424561 L116.183036,30.7424561 Z" id="路径-copy-4"></path>
                    <path d="M37.6193727,14.1032623 C37.824639,12.6249897 39.085721,11.4872915 40.6107685,11.4872915 L60.2306472,11.4872915 C68.5222141,11.4872915 74.0431009,18.6865709 72.498216,27.1968976 C71.0264126,35.3046394 63.6721243,41.8132748 55.8295324,41.8132748 L42.7390179,41.8132748 L45.9717168,24.0052659 C46.2716063,22.3532608 47.8450691,21.2587738 49.4861442,21.5606606 C51.1272194,21.8625474 52.2144652,23.4464897 51.9145757,25.0984947 L49.9843111,35.7317676 L55.8295324,35.7317676 C60.6858411,35.7317676 65.5964919,31.3857814 66.5553571,26.1036688 C67.4411407,21.2241411 64.6379808,17.5687988 60.2306472,17.5687988 L43.0108369,17.5687988 L37.1466408,47.8132296 L53.1410364,47.8132296 C64.8820303,47.8132296 76.3740745,38.2911149 78.6209893,26.7027135 C80.780622,15.5644668 73.5666798,6.7572303 62.2806886,6.7572303 L15.1031784,6.7572303 C13.4349273,6.7572303 12.0825427,5.39583853 12.0825427,3.71647667 C12.0825427,2.0371148 13.4349273,0.67572303 15.1031784,0.67572303 L62.2806886,0.67572303 C77.3660924,0.67572303 87.4384281,12.972667 84.5503703,27.8677464 C81.7495945,42.3126709 67.7714374,53.8947368 53.1410364,53.8947368 L29.8122034,53.8947368 L37.3899889,14.8125157 C37.4385843,14.5618861 37.5164705,14.3245025 37.6193727,14.1032623 Z M31.1183427,10.8115685 C32.9719549,10.8115685 34.4746045,12.324226 34.4746045,14.1901836 C34.4746045,16.0561413 32.9719549,17.5687988 31.1183427,17.5687988 L23.493833,17.5687988 C21.6402208,17.5687988 20.1375712,16.0561413 20.1375712,14.1901836 C20.1375712,12.324226 21.6402208,10.8115685 23.493833,10.8115685 L31.1183427,10.8115685 Z M25.7483237,34.4618745 C27.6019359,34.4618745 29.1045856,35.9745321 29.1045856,37.8404897 C29.1045856,39.7064473 27.6019359,41.2191048 25.7483237,41.2191048 L18.123814,41.2191048 C16.2702018,41.2191048 14.7675522,39.7064473 14.7675522,37.8404897 C14.7675522,35.9745321 16.2702018,34.4618745 18.123814,34.4618745 L25.7483237,34.4618745 Z M24.8710471,22.29886 C26.7246594,22.29886 28.227309,23.8115175 28.227309,25.6774751 C28.227309,27.5434328 26.7246594,29.0560903 24.8710471,29.0560903 L3.35626186,29.0560903 C1.50264962,29.0560903 -1.42108547e-13,27.5434328 -1.42108547e-13,25.6774751 C-1.42108547e-13,23.8115175 1.50264962,22.29886 3.35626186,22.29886 L24.8710471,22.29886 Z M15.4388045,17.2470259 C13.5851923,17.2470259 12.0825427,15.8063997 12.0825427,14.0292972 C12.0825427,12.2521947 13.5851923,10.8115685 15.4388045,10.8115685 C17.2924168,10.8115685 18.7950664,12.2521947 18.7950664,14.0292972 C18.7950664,15.8063997 17.2924168,17.2470259 15.4388045,17.2470259 Z M6.04127135,6.7572303 C4.1876591,6.7572303 2.68500949,5.24457277 2.68500949,3.37861515 C2.68500949,1.51265753 4.1876591,9.60492154e-13 6.04127135,1.15463195e-13 C7.89488359,-7.29565764e-13 9.3975332,1.51265753 9.3975332,3.37861515 C9.3975332,5.24457277 7.89488359,6.7572303 6.04127135,6.7572303 Z M10.0687856,41.2191048 C8.21517334,41.2191048 6.71252372,39.7064473 6.71252372,37.8404897 C6.71252372,35.9745321 8.21517334,34.4618745 10.0687856,34.4618745 C11.9223978,34.4618745 13.4250474,35.9745321 13.4250474,37.8404897 C13.4250474,39.7064473 11.9223978,41.2191048 10.0687856,41.2191048 Z" id="合并形状-copy-5"></path>
                </g>
            </g>
        </g>
    </g>
</svg>