<?xml version="1.0" encoding="UTF-8"?>
<svg width="180px" height="38px" viewBox="0 0 180 38" version="1.1" xmlns="http://www.w3.org/2000/svg" xmlns:xlink="http://www.w3.org/1999/xlink">
    <!-- Generator: Sketch 52.5 (67469) - http://www.bohemiancoding.com/sketch -->
    <title>DGraph</title>
    <desc>Created with Sketch.</desc>
    <defs>
        <linearGradient x1="100%" y1="50%" x2="0%" y2="50%" id="linearGradient-1">
            <stop stop-color="#6183E9" offset="0%"></stop>
            <stop stop-color="#0CD9A0" offset="100%"></stop>
        </linearGradient>
    </defs>
    <g id="Page-1" stroke="none" stroke-width="1" fill="none" fill-rule="evenodd">
        <g id="DGraph-首页" transform="translate(-44.000000, -33.000000)" fill-rule="nonzero">
            <g id="DGraph" transform="translate(44.000000, 33.000000)">
                <g id="分组">
                    <path d="M124.955357,12.1716785 L124.955357,11.2034537 C124.955357,10.0969768 125.854785,9.2 126.964286,9.2 C128.073786,9.2 128.973214,10.0969768 128.973214,11.2034537 L128.973214,29.5965463 C128.973214,30.7030232 128.073786,31.6 126.964286,31.6 C125.854785,31.6 124.955357,30.7030232 124.955357,29.5965463 L124.955357,28.6283215 C122.949733,30.4728867 120.267859,31.6 117.321429,31.6 C111.108225,31.6 106.071429,26.5880546 106.071429,20.4055066 L106.071429,20.3944934 C106.071429,14.2119454 111.108225,9.2 117.321429,9.2 C120.267859,9.2 122.949733,10.3271133 124.955357,12.1716785 Z M117.120536,13.2 C113.237284,13.2 110.089286,16.331581 110.089286,20.194582 L110.089286,20.205418 C110.089286,24.068419 113.237284,27.2 117.120536,27.2 C121.003788,27.2 124.151786,24.068419 124.151786,20.205418 L124.151786,20.194582 C124.151786,16.331581 121.003788,13.2 117.120536,13.2 Z" id="合并形状" fill="#5A8AE3"></path>
                    <path d="M137.008929,28.9806706 L137.008929,35.9973148 C137.008929,37.1033673 136.109501,38 135,38 C133.890499,38 132.991071,37.1033673 132.991071,35.9973148 L132.991071,11.2026852 C132.991071,10.0966327 133.890499,9.2 135,9.2 C136.109501,9.2 137.008929,10.0966327 137.008929,11.2026852 L137.008929,11.8193294 C138.964447,10.1846017 141.487206,9.2 144.241071,9.2 C150.454275,9.2 155.491071,14.2119454 155.491071,20.3944934 L155.491071,20.4055066 C155.491071,26.5880546 150.454275,31.6 144.241071,31.6 C141.487206,31.6 138.964447,30.6153983 137.008929,28.9806706 Z M144.441964,13.2 C140.558712,13.2 137.410714,16.331581 137.410714,20.194582 L137.410714,20.205418 C137.410714,24.068419 140.558712,27.2 144.441964,27.2 C148.325216,27.2 151.473214,24.068419 151.473214,20.205418 L151.473214,20.194582 C151.473214,16.331581 148.325216,13.2 144.441964,13.2 Z" id="合并形状" fill="#5A8AE3"></path>
                    <path d="M92.4107143,15.2941817 C94.3615956,13.6949599 96.8138756,12.7999998 99.4015241,12.7999998 C100.233322,12.7999998 100.923297,12.849629 101.591118,12.9828174 C102.679005,13.1997823 103.384241,14.2536536 103.166307,15.3367049 C102.948374,16.4197561 101.889798,17.1218578 100.801911,16.9048929 C100.436706,16.8320574 99.9910224,16.7999998 99.4015241,16.7999998 C97.6458924,16.7999998 95.9962968,17.4446005 94.7196786,18.5924604 C94.0178074,19.2235417 93.4496062,19.9897166 93.0529991,20.8431412 C92.6417987,21.7279675 92.4212591,22.6919343 92.4107143,23.684915 L92.4107143,23.8934983 L92.4287471,29.977534 C92.4309197,30.7105262 92.036741,31.3525841 91.4470662,31.7025619 C91.142546,31.8912675 90.7846751,32 90.4017857,32 C89.2922851,32 88.3928571,31.0870058 88.3928571,29.9607703 L88.3928571,23.8965112 L88.3924691,23.7655171 C88.3924691,23.7345501 88.3925985,23.7035999 88.3928571,23.6726672 L88.3928571,11.2392297 C88.3928571,10.1129942 89.2922851,9.2 90.4017857,9.2 C91.5112863,9.2 92.4107143,10.1129942 92.4107143,11.2392297 L92.4107143,15.2941817 Z" id="合并形状" fill="#5A8AE3"></path>
                    <path d="M159.508929,2.4 C159.508929,1.2954305 160.408357,0.4 161.517857,0.4 C162.627358,0.4 163.526786,1.2954305 163.526786,2.4 L163.526786,29.6 C163.526786,30.7045695 162.627358,31.6 161.517857,31.6 C160.408357,31.6 159.508929,30.7045695 159.508929,29.6 L159.508929,2.4 Z" id="路径-12-copy-44" fill="#5A8AE3"></path>
                    <path d="M163.499056,29.6098039 C163.499056,30.7089589 162.605836,31.6 161.503992,31.6 C160.402149,31.6 159.508929,30.7089589 159.508929,29.6098039 L159.508929,19.420538 C159.508929,13.7758907 164.096011,9.2 169.754464,9.2 C175.412917,9.2 180,13.7758907 180,19.420538 L180,29.6098039 C180,30.7089589 179.10678,31.6 178.004936,31.6 C176.903093,31.6 176.009872,30.7089589 176.009872,29.6098039 L176.009872,19.420538 C176.009872,15.9742006 173.209231,13.1803922 169.754464,13.1803922 C166.299698,13.1803922 163.499056,15.9742006 163.499056,19.420538 L163.499056,29.6098039 Z" id="路径-copy-29" fill="#5A8AE3"></path>
                    <path d="M69.7098214,18.2533333 C68.6153141,18.2533333 67.7280405,17.3340247 67.7280405,16.2 C67.7280405,15.0659753 68.6153141,14.1466667 69.7098214,14.1466667 L84.375,14.1466667 L84.375,16.2 C84.375,16.9579869 84.3227058,17.7097787 84.2191816,18.4511395 C83.1707663,25.9590829 77.0162079,31.6 69.7098214,31.6 C61.6035304,31.6 55.0446429,24.6981203 55.0446429,16.2 C55.0446429,7.70187971 61.6035304,0.8 69.7098214,0.8 C75.1434997,0.8 80.0494682,3.93062933 82.5976145,8.84596797 C83.1155203,9.8450011 82.7537113,11.0898817 81.7894914,11.6264866 C80.8252716,12.1630914 79.6237713,11.7882193 79.1058655,10.7891862 C77.2391751,7.18836642 73.6635531,4.90666667 69.7098214,4.90666667 C63.8064183,4.90666667 59.0082046,9.95579937 59.0082046,16.2 C59.0082046,22.4442006 63.8064183,27.4933333 69.7098214,27.4933333 C74.9017477,27.4933333 79.3132144,23.5631346 80.2353566,18.2533333 L69.7098214,18.2533333 Z" id="路径-copy-4" fill="#5A8AE3"></path>
                    <path d="M22.5716236,8.37381201 C22.6947834,7.49608765 23.4514326,6.82057933 24.3664611,6.82057933 L36.1383883,6.82057933 C41.1133284,6.82057933 44.4258605,11.0951514 43.4989296,16.148158 C42.6158476,20.9621296 38.2032746,24.8266319 33.4977195,24.8266319 L25.6434108,24.8266319 L27.5830301,14.2531266 C27.7629638,13.2722486 28.7070414,12.6223969 29.6916865,12.8016422 C30.6763317,12.9808875 31.3286791,13.9213532 31.1487454,14.9022312 L29.9905867,21.215737 L33.4977195,21.215737 C36.4115047,21.215737 39.3578951,18.6353077 39.9332142,15.4990533 C40.4646844,12.6018338 38.7827885,10.4314743 36.1383883,10.4314743 L25.8065021,10.4314743 L22.2879845,28.3891051 L31.8846218,28.3891051 C38.9292182,28.3891051 45.8244447,22.7353495 47.1725936,15.8547361 C48.4683732,9.24140218 44.1400079,4.01210549 37.3684132,4.01210549 L9.06190702,4.01210549 C8.06095641,4.01210549 7.24952561,3.20377912 7.24952561,2.20665802 C7.24952561,1.20953692 8.06095641,0.401210549 9.06190702,0.401210549 L37.3684132,0.401210549 C46.4196554,0.401210549 52.4630569,7.70252106 50.7302222,16.5464744 C49.0497567,25.1231484 40.6628624,32 31.8846218,32 L17.8873221,32 L22.4339933,8.79493118 C22.4631506,8.6461199 22.5098823,8.50517334 22.5716236,8.37381201 Z M18.6710056,6.41936879 C19.783173,6.41936879 20.6847627,7.31750919 20.6847627,8.42542153 C20.6847627,9.53333387 19.783173,10.4314743 18.6710056,10.4314743 L14.0962998,10.4314743 C12.9841325,10.4314743 12.0825427,9.53333387 12.0825427,8.42542153 C12.0825427,7.31750919 12.9841325,6.41936879 14.0962998,6.41936879 L18.6710056,6.41936879 Z M15.4489942,20.461738 C16.5611616,20.461738 17.4627513,21.3598784 17.4627513,22.4677907 C17.4627513,23.5757031 16.5611616,24.4738435 15.4489942,24.4738435 L10.8742884,24.4738435 C9.76212108,24.4738435 8.86053131,23.5757031 8.86053131,22.4677907 C8.86053131,21.3598784 9.76212108,20.461738 10.8742884,20.461738 L15.4489942,20.461738 Z M14.9226283,13.2399481 C16.0347956,13.2399481 16.9363854,14.1380885 16.9363854,15.2460009 C16.9363854,16.3539132 16.0347956,17.2520536 14.9226283,17.2520536 L2.01375712,17.2520536 C0.901589771,17.2520536 -1.42108547e-13,16.3539132 -1.42108547e-13,15.2460009 C-1.42108547e-13,14.1380885 0.901589771,13.2399481 2.01375712,13.2399481 L14.9226283,13.2399481 Z M9.26328273,10.2404216 C8.15111539,10.2404216 7.24952561,9.38504982 7.24952561,8.32989521 C7.24952561,7.2747406 8.15111539,6.41936879 9.26328273,6.41936879 C10.3754501,6.41936879 11.2770398,7.2747406 11.2770398,8.32989521 C11.2770398,9.38504982 10.3754501,10.2404216 9.26328273,10.2404216 Z M3.62476281,4.01210549 C2.51259546,4.01210549 1.61100569,3.11396508 1.61100569,2.00605275 C1.61100569,0.898140407 2.51259546,6.17199139e-13 3.62476281,1.15463195e-13 C4.73693015,-3.8627275e-13 5.63851992,0.898140407 5.63851992,2.00605275 C5.63851992,3.11396508 4.73693015,4.01210549 3.62476281,4.01210549 Z M6.04127135,24.4738435 C4.929104,24.4738435 4.02751423,23.5757031 4.02751423,22.4677907 C4.02751423,21.3598784 4.929104,20.461738 6.04127135,20.461738 C7.15343869,20.461738 8.05502846,21.3598784 8.05502846,22.4677907 C8.05502846,23.5757031 7.15343869,24.4738435 6.04127135,24.4738435 Z" id="合并形状-copy-5" fill="url(#linearGradient-1)"></path>
                </g>
            </g>
        </g>
    </g>
</svg>